<svg width="50" height="50" viewBox="0 0 50 50" fill="none" xmlns="http://www.w3.org/2000/svg">
<g clip-path="url(#clip0_2_2)">
<path d="M39.2307 5.76373L28.3314 2.41673C25.9256 1.68399 23.3283 1.92406 21.0976 3.08537C18.8668 4.24667 17.1805 6.23658 16.4008 8.62767L16.0404 9.6609H9.58436C7.04336 9.66395 4.60731 10.6747 2.81055 12.4716C1.01379 14.2684 0.00303609 16.7046 -7.62939e-06 19.2457L-7.62939e-06 38.4152C0.00303609 40.9563 1.01379 43.3925 2.81055 45.1893C4.60731 46.9862 7.04336 47.997 9.58436 48H21.0856C22.5377 47.9949 23.9694 47.6583 25.2716 47.0158C26.5738 46.3733 27.7122 45.4419 28.5997 44.2926C29.0372 44.3561 29.4785 44.3894 29.9205 44.3923C31.9788 44.3939 33.9824 43.7296 35.6321 42.4985C37.2818 41.2675 38.489 39.5359 39.0735 37.5622L45.6216 17.6278C46.3211 15.2072 46.0436 12.6089 44.8487 10.3907C43.6538 8.17244 41.6368 6.51123 39.2307 5.76373ZM21.0856 44.1661H9.58436C8.0592 44.1661 6.59651 43.5602 5.51806 42.4817C4.43961 41.4032 3.83374 39.9404 3.83374 38.4152V19.2457C3.83374 17.7205 4.43961 16.2577 5.51806 15.1792C6.59651 14.1007 8.0592 13.4948 9.58436 13.4948H21.0856C22.6108 13.4948 24.0735 14.1007 25.1519 15.1792C26.2304 16.2577 26.8362 17.7205 26.8362 19.2457V38.4152C26.8362 39.9404 26.2304 41.4032 25.1519 42.4817C24.0735 43.5602 22.6108 44.1661 21.0856 44.1661ZM41.9546 16.491L35.4142 36.4273C35.0892 37.5302 34.4402 38.51 33.5515 39.2394C32.6628 39.9689 31.5754 40.4144 30.4304 40.5181C30.5877 39.8282 30.6681 39.1229 30.67 38.4152V19.2457C30.6669 16.7046 29.6562 14.2684 27.8594 12.4716C26.0626 10.6747 23.6266 9.66395 21.0856 9.6609H20.1137C20.6085 8.26646 21.6217 7.1164 22.9427 6.44983C24.2636 5.78327 25.7906 5.65151 27.2062 6.08195L38.1055 9.42895C39.5411 9.87196 40.7469 10.8582 41.4659 12.1773C42.1849 13.4965 42.3602 15.0444 41.9546 16.491ZM23.0025 26.9135C23.0025 29.6931 20.0428 33.4139 17.8001 35.3059C17.111 35.889 16.2376 36.2089 15.335 36.2089C14.4324 36.2089 13.559 35.889 12.8699 35.3059C10.6271 33.4139 7.66749 29.6931 7.66749 26.9135C7.66749 25.8967 8.0714 24.9215 8.79036 24.2025C9.50933 23.4835 10.4845 23.0796 11.5012 23.0796C12.518 23.0796 13.4931 23.4835 14.2121 24.2025C14.9311 24.9215 15.335 25.8967 15.335 26.9135C15.335 25.8967 15.7389 24.9215 16.4579 24.2025C17.1768 23.4835 18.152 23.0796 19.1687 23.0796C20.1855 23.0796 21.1606 23.4835 21.8796 24.2025C22.5986 24.9215 23.0025 25.8967 23.0025 26.9135Z" fill="black"/>
</g>
<defs>
<clipPath id="clip0_2_2">
<rect width="50" height="50" fill="white"/>
</clipPath>
</defs>
</svg>
